<?xml version="1.0" encoding="utf-8"?>
<!-- Generator: Adobe Illustrator 23.1.0, SVG Export Plug-In . SVG Version: 6.00 Build 0)  -->
<svg version="1.1" id="图层_1" xmlns="http://www.w3.org/2000/svg" xmlns:xlink="http://www.w3.org/1999/xlink" x="0px" y="0px"
	 viewBox="0 0 237 79.2" style="enable-background:new 0 0 237 79.2;" xml:space="preserve">
<style type="text/css">
	.st0{fill:#070505;}
	.st1{fill-rule:evenodd;clip-rule:evenodd;fill:#070505;}
	.st2{fill:#7871B2;}
	.st3{fill:url(#SVGID_1_);}
	.st4{fill:url(#SVGID_2_);}
	.st5{fill:url(#SVGID_3_);}
</style>
<path class="st0" d="M86.7,25.8h12v5.8H88.6l0.2,0.9h22c0.5,0,0.8-0.2,0.9-0.5c-1.2-1.1-3.1-2.5-3.1-2.5l-1.6,2.1h-5.8v-5.8H113
	c0.4,0,0.8-0.1,0.9-0.5c-1.2-1-3-2.5-3-2.5l-1.6,2.1h-8v-4.5c0.8-0.1,1.1-0.5,1.2-0.9l-3.7-0.4v5.8H86.5L86.7,25.8z M98.6,34.1
	c1.4,1.5,3,4,3.2,6.1c2.3,2,4.5-3.4-2.9-6.4L98.6,34.1z M90.1,36.3c-0.1,2.6-1.5,4.9-2.9,5.8c-0.7,0.5-1.1,1.2-0.8,1.9
	c0.4,0.8,1.7,0.7,2.5,0c1.4-1,2.8-3.7,1.8-7.7H90.1z M107.7,39.7h-0.4c-0.5,1.9-0.9,3.4-1.2,4c-0.1,0.3-0.3,0.3-0.7,0.4
	c-0.6,0.1-1.9,0.1-3.7,0.1h-4.1c-1.5,0-1.7-0.2-1.7-0.7V36c0.6-0.1,0.9-0.4,0.9-0.8l-3.4-0.3V44c0,1.9,0.7,2.4,3.8,2.4h4.3
	c6.2,0,7.4-0.4,7.4-1.6c0-0.5-0.2-0.7-1.1-1L107.7,39.7z M107.7,36.2c1.6,1.8,3.5,4.6,3.9,7c2.6,2,4.6-3.8-3.6-7.2L107.7,36.2z"/>
<path class="st0" d="M144.1,24c0.4,0,0.7-0.1,0.8-0.5c-1-1-2.7-2.5-2.7-2.5l-1.5,2h-6.9c0.4-0.7,0.8-1.4,1.2-2.2
	c0.7,0.1,1-0.2,1.2-0.5l-3.5-1.2c-0.8,3.4-2.3,6.8-3.8,9l0.4,0.2c1.4-1.1,2.8-2.6,4-4.3H144.1z M135.4,25.3c1.3,1.2,2.7,3.2,3,5
	c2.3,1.6,4.2-3.2-2.7-5.2L135.4,25.3z M127.2,20.4c0.8-0.1,1.1-0.4,1.1-0.9l-3.5-0.3V31h0.4c0.9,0,1.9-0.5,1.9-0.8L127.2,20.4
	L127.2,20.4z M121.3,21.6c0.8-0.1,1.1-0.4,1.1-0.8l-3.3-0.3v10.4h0.4c0.8,0,1.8-0.5,1.8-0.7V21.6z M140.1,45.2h-4.6
	c0.9-0.8,2-1.8,2.9-2.8c0.6,0.1,1-0.2,1.2-0.5l-3.1-1.4c-0.6,1.6-1.4,3.4-2.1,4.6h-2.6V40h9.3c0.4,0,0.7-0.2,0.8-0.5
	c-1.1-1-2.8-2.3-2.8-2.3l-1.5,1.9h-5.8V36h4.9c0.4,0,0.7-0.2,0.8-0.5c-1-0.9-2.5-2-2.5-2l-1.3,1.6h-10.1l0.2,0.9h5.4v3.1h-9.6
	l0.2,0.9h9.3v5.1h-12.4L117,46h26.8c0.4,0,0.7-0.2,0.8-0.5c-1.1-1-2.9-2.5-2.9-2.5L140.1,45.2z M122.3,40.9c0.8,0.9,1.7,2.5,1.9,3.7
	c2,1.7,4.2-2.4-1.5-4L122.3,40.9z M129.2,28.4c-1.5,2.8-7.4,6.6-12.6,8.3l0.2,0.5c5.7-1.3,11.7-4.3,14.6-7c2.4,2.8,6.8,5.1,11.6,6.2
	c0.1-0.9,0.9-1.9,1.9-2.2v-0.5c-4.7-0.5-10.1-2-13-4c0.9-0.1,1.2-0.2,1.3-0.6L129.2,28.4z"/>
<path class="st0" d="M174.6,29.1c0.4,0,0.7-0.1,0.8-0.5c-1.2-1.1-3.3-2.7-3.3-2.7l-1.8,2.3H162c0.2-2.5,0.3-5.1,0.3-7.8
	c0.7-0.1,0.9-0.4,1-0.9l-3.8-0.4c0,3.1,0,6.2-0.2,9h-11.9l0.2,0.9h11.6c-0.7,7-3.2,13-12.1,17.9l0.4,0.5c10.6-4.5,13.5-10.8,14.4-18
	c0.9,6.1,3.3,13.5,11.4,18c0.3-1.4,1.2-2,2.5-2.2v-0.4c-8.9-4-12.3-10-13.4-15.8L174.6,29.1L174.6,29.1z"/>
<path class="st0" d="M188.1,25.1c1-0.9,2.2-2.1,3.1-3.3c0.6,0,1-0.2,1.1-0.5l-3-1.1c-0.6,1.7-1.2,3.6-1.7,4.7L188.1,25.1z
	 M179.2,20.6c0.8,1,1.8,2.6,1.9,4c1.9,1.6,4-2.3-1.5-4.2L179.2,20.6z M189,36.8c-0.5,1.7-1.2,3.1-2.1,4.4c-1.2-0.4-2.8-0.7-4.7-0.9
	c0.7-1,1.5-2.3,2.1-3.5H189z M190.3,34.6l-1.4,1.3h-4.1c0.3-0.5,0.6-1.1,0.8-1.5c0.9,0.1,1.2-0.2,1.3-0.5l-2.6-0.9h0.4
	c0.8,0,1.8-0.5,1.8-0.7v-4.6c1.3,1.2,2.8,2.9,3.3,4.2c2.3,1.4,3.7-3.1-3.3-4.9v-0.5h6.3c0.4,0,0.7-0.1,0.8-0.5
	c-0.9-0.9-2.5-2.1-2.5-2.1l-1.3,1.8h-3.3v-5.3c0.8-0.1,1-0.4,1.1-0.8l-3.4-0.4v6.4H178l0.2,0.9h5c-1.2,2.5-3.2,4.8-5.6,6.6l0.3,0.5
	c2.5-1.2,4.7-2.8,6.3-4.7V33l-0.6-0.2c-0.3,0.7-0.8,1.9-1.5,3.1h-4.4l0.3,0.9h3.7c-0.8,1.5-1.7,3-2.3,4c1.8,0.4,4,1.1,6,2
	c-1.8,1.8-4.2,3.2-7.4,4.2l0.2,0.5c3.7-0.8,6.6-2.1,8.7-3.8c0.9,0.5,1.8,1.1,2.3,1.8c1.8,0.6,2.6-1.7-0.7-3.4c1.2-1.4,2.1-3,2.8-4.8
	c0.6,0,1-0.1,1.2-0.4L190.3,34.6z M201.1,27c-0.3,4-1,7.5-2.5,10.6c-1.4-2.5-2.4-5.2-3.1-8.3c0.3-0.8,0.7-1.5,1-2.3H201.1z
	 M205.8,27c0.4,0,0.7-0.1,0.8-0.5c-1.1-1-2.9-2.4-2.9-2.4l-1.6,2h-5.4c0.6-1.7,1.1-3.5,1.5-5.4c0.7,0,1-0.3,1.1-0.7l-3.8-0.8
	c-0.6,5.5-2.1,11.1-3.9,15l0.5,0.3c1-1.2,1.9-2.5,2.7-4c0.6,3.3,1.4,6.3,2.6,9c-1.8,2.9-4.5,5.5-8.4,7.5l0.2,0.4
	c4.1-1.5,7-3.5,9.2-6c1.4,2.4,3.2,4.5,5.7,6.1c0.3-1.1,1.1-1.7,2.2-1.9l0.1-0.3c-2.8-1.4-5-3.3-6.6-5.5c2.3-3.5,3.4-7.7,3.9-12.6
	L205.8,27L205.8,27z"/>
<path class="st0" d="M218.8,31.6c-1.3,0.4-2.7,0.9-3.9,1.3v-5.7h3.3c0.4,0,0.7-0.1,0.8-0.5c-0.9-1-2.3-2.4-2.3-2.4l-1.3,2h-0.5v-5.9
	c0.7-0.1,1-0.4,1.1-0.9l-3.5-0.4v7.1h-4.1l0.2,0.9h3.8v6.5c-2,0.6-3.6,1.1-4.6,1.3l1.2,3c0.3-0.1,0.6-0.4,0.7-0.8
	c0.9-0.5,1.8-1,2.7-1.4V44c0,0.4-0.1,0.6-0.6,0.6c-0.6,0-3.1-0.2-3.1-0.2v0.5c1.2,0.2,1.8,0.5,2.2,0.9s0.5,1,0.6,1.8
	c3-0.3,3.3-1.4,3.3-3.3v-9.8c1.6-0.9,3-1.7,4-2.4L218.8,31.6z M232.8,38.7v5.8h-8.6v-5.8H232.8z M233,22.2v4.5h-11.3v-4.5H233z
	 M236.1,33c0.4,0,0.7-0.2,0.8-0.5c-1-1-2.8-2.4-2.8-2.4l-1.5,2h-3.1V29c0.7-0.1,0.9-0.4,1-0.7l-3.3-0.3v4.2h-5.5
	c0.1-1.2,0.1-2.3,0.1-3.3v-1.2H233v1h0.3c0.8,0,2-0.5,2-0.7v-5.4c0.5-0.1,0.9-0.3,1-0.5l-2.5-1.9l-1.2,1.3H222l-2.8-1.1V29
	c0,5.9-0.3,12.5-3.5,17.7l0.5,0.3c3.9-3.9,4.9-9.1,5.2-13.8h5.6V38h-2.8l-2.4-1v10.7h0.3c1,0,2-0.5,2-0.8v-1.3h8.6v1.9h0.4
	c0.8,0,2-0.5,2-0.7v-7.4c0.6-0.1,1.1-0.4,1.3-0.6l-2.7-2.1l-1.2,1.3h-3v-5L236.1,33L236.1,33z"/>
<path class="st1" d="M88.8,57H127v0.8H88.8V57z"/>
<path class="st1" d="M195.6,57h38.2v0.8h-38.2V57z"/>
<path class="st0" d="M134.3,58.5l-0.2,1h-2.2l2.7-4.2V55h-3.3l-0.1,1.2h0.4l0.2-0.9h2l-2.7,4.2v0.2h3.5v-1.3L134.3,58.5L134.3,58.5z
	"/>
<path class="st0" d="M140,55.3V55h-2v0.2l0.7,0.1c0,0.6,0,1.2,0,1.8h-2.3c0-0.6,0-1.2,0-1.8l0.7-0.1V55h-2v0.2l0.7,0.1
	c0,0.6,0,1.2,0,1.9v0.3c0,0.6,0,1.2,0,1.9l-0.7,0.1v0.2h2v-0.2l-0.7-0.1c0-0.6,0-1.2,0-2h2.3c0,0.7,0,1.3,0,2l-0.7,0.1v0.2h2v-0.2
	l-0.7-0.1c0-0.6,0-1.2,0-1.9v-0.3c0-0.6,0-1.3,0-1.9H140z"/>
<path class="st0" d="M142.6,55.3V55h-2v0.2l0.7,0.1c0,0.6,0,1.2,0,1.9v0.3c0,0.6,0,1.2,0,1.9l-0.7,0.1v0.2h2v-0.2l-0.7-0.1
	c0-0.6,0-1.2,0-1.8v-0.3c0-0.6,0-1.3,0-1.9L142.6,55.3z"/>
<path class="st0" d="M145.3,54.5h-2v0.2l0.7,0.1c0,3.2,0.1,3.8,0.1,4.2c0,0.5-0.1,0.8-0.3,1l-0.2-0.2c-0.2-0.2-0.3-0.2-0.5-0.2
	s-0.4,0.1-0.4,0.3c0.1,0.2,0.3,0.3,0.6,0.3c0.6,0,1.2-0.4,1.3-1.1c0.1-0.3,0.1-0.7,0.1-1.5v-1.1c0-0.6,0-1.2,0-1.9L145.3,54.5
	L145.3,54.5L145.3,54.5z"/>
<path class="st0" d="M147.9,55.3V55h-2v0.2l0.7,0.1c0,0.6,0,1.2,0,1.9v0.3c0,0.6,0,1.2,0,1.9l-0.7,0.1v0.2h2v-0.2l-0.7-0.1
	c0-0.6,0-1.2,0-1.8v-0.3c0-0.6,0-1.3,0-1.9L147.9,55.3z"/>
<path class="st0" d="M149.6,57.9l0.7-2.2l0.7,2.2H149.6z M152.2,59.4l-1.5-4.4h-0.4l-1.5,4.4l-0.6,0.1v0.2h1.6v-0.2l-0.7-0.1
	l0.4-1.2h1.6l0.4,1.2l-0.7,0.1v0.2h1.9v-0.2L152.2,59.4z"/>
<path class="st0" d="M157.7,55H156v0.2l0.8,0.1v3.3l-2.6-3.6h-1.1v0.2l0.5,0.1l0.1,0.1v4l-0.6,0.1v0.2h1.7v-0.2l-0.8-0.1v-3.6
	l2.9,3.9h0.2v-4.4l0.6-0.1V55L157.7,55z"/>
<path class="st0" d="M162.9,59.4c0-0.6,0-1.3,0-2h0.4c1,0,1.4,0.3,1.4,1c0,0.6-0.4,1-1.3,1H162.9L162.9,59.4z M163.4,55.3
	c0.7,0,1.1,0.3,1.1,0.9c0,0.7-0.4,1-1.2,1h-0.4c0-0.6,0-1.2,0-1.8h0.5L163.4,55.3L163.4,55.3z M161.6,55v0.2l0.6,0.1
	c0,0.6,0,1.2,0,1.8v0.3c0,0.6,0,1.3,0,1.9l-0.6,0.1v0.2h1.9c1.3,0,1.9-0.6,1.9-1.3c0-0.6-0.4-1-1.4-1.2c0.8-0.2,1.1-0.6,1.1-1.1
	c0-0.7-0.5-1.1-1.5-1.1C163.6,55,161.6,55,161.6,55z"/>
<path class="st0" d="M168,55.3V55h-2v0.2l0.6,0.1c0,0.6,0,1.2,0,1.9v0.3c0,0.6,0,1.2,0,1.9l-0.6,0.1v0.2h2v-0.2l-0.6-0.1
	c0-0.6,0-1.2,0-1.8v-0.3c0-0.6,0-1.3,0-1.9L168,55.3z"/>
<path class="st0" d="M173,57.5h-1.8v0.2l0.7,0.1c0,0.4,0,0.9,0,1.3v0.3c-0.3,0.1-0.5,0.1-0.8,0.1c-1.1,0-1.8-0.8-1.8-2.2
	s0.7-2.2,1.7-2.2c0.3,0,0.6,0.1,0.8,0.2l0.2,0.9h0.4v-1c-0.4-0.2-0.8-0.3-1.4-0.3c-1.4,0-2.4,1-2.4,2.5c0,1.4,1,2.5,2.4,2.5
	c0.6,0,1-0.2,1.5-0.4v-0.3c0-0.5,0-0.9,0-1.3h0.4L173,57.5L173,57.5z"/>
<path class="st0" d="M176.4,59.4c0-0.6,0-1.3,0-2v-0.2c0-0.7,0-1.3,0-1.9h0.6c1.1,0,1.7,0.7,1.7,2.1c0,1.3-0.6,2.1-1.7,2.1
	C176.9,59.4,176.4,59.4,176.4,59.4z M175,55v0.2l0.6,0.1c0,0.6,0,1.2,0,1.9v0.2c0,0.7,0,1.3,0,2l-0.6,0.1v0.2h1.9
	c1.4,0,2.4-0.8,2.4-2.3S178.4,55,177,55H175L175,55z"/>
<path class="st0" d="M181.1,57.9l0.7-2.2l0.7,2.2H181.1z M183.8,59.4l-1.5-4.4h-0.4l-1.5,4.4l-0.6,0.1v0.2h1.6v-0.2l-0.7-0.1
	l0.4-1.2h1.6l0.4,1.2l-0.7,0.1v0.2h1.9v-0.2L183.8,59.4z"/>
<path class="st0" d="M187.9,55.3l0.2,0.9h0.3V55h-3.9l-0.1,1.2h0.4l0.2-0.9h1.1c0,0.6,0,1.2,0,1.9v0.3c0,0.6,0,1.2,0,1.8l-0.7,0.1
	v0.2h2.1v-0.2l-0.7-0.1c0-0.6,0-1.2,0-1.8v-0.3c0-0.6,0-1.3,0-1.9H187.9L187.9,55.3z"/>
<path class="st0" d="M190,57.9l0.7-2.2l0.7,2.2H190z M192.6,59.4l-1.5-4.4h-0.4l-1.5,4.4l-0.6,0.1v0.2h1.6v-0.2l-0.7-0.1l0.4-1.2
	h1.6l0.4,1.2l-0.7,0.1v0.2h1.9v-0.2L192.6,59.4z"/>
<g>
	<path class="st2" d="M1.2,16.6L1.2,16.6L1.2,16.6z"/>
	
		<linearGradient id="SVGID_1_" gradientUnits="userSpaceOnUse" x1="1.2" y1="732.85" x2="50.1217" y2="732.85" gradientTransform="matrix(1 0 0 1 0 -710)">
		<stop  offset="0" style="stop-color:#A492C4"/>
		<stop  offset="0.2592" style="stop-color:#A296C7"/>
		<stop  offset="0.5132" style="stop-color:#9CA2D0"/>
		<stop  offset="0.7642" style="stop-color:#93B5DF"/>
		<stop  offset="1" style="stop-color:#86CFF2"/>
	</linearGradient>
	<path class="st3" d="M40.3,16.6H20.7H1.2l0,0c0,6.8,4.2,12.3,9.5,12.5c0.1,0,0.2,0,0.3,0s0.2,0,0.3,0h19.3h19.6
		C50.1,22.2,45.7,16.6,40.3,16.6z"/>
	<path class="st2" d="M1.2,34L1.2,34L1.2,34z"/>
	
		<linearGradient id="SVGID_2_" gradientUnits="userSpaceOnUse" x1="1.1533" y1="750.25" x2="50.075" y2="750.25" gradientTransform="matrix(1 0 0 1 0 -710)">
		<stop  offset="0" style="stop-color:#A492C4"/>
		<stop  offset="0.2592" style="stop-color:#A296C7"/>
		<stop  offset="0.5132" style="stop-color:#9CA2D0"/>
		<stop  offset="0.7642" style="stop-color:#93B5DF"/>
		<stop  offset="1" style="stop-color:#86CFF2"/>
	</linearGradient>
	<path class="st4" d="M50.1,34H30.5H10.9c-5.4,0-9.8,5.6-9.8,12.5h9.5c0.1,0,0.2,0,0.3,0s0.2,0,0.3,0h9.5H40h0.6
		C45.8,46.3,50.1,40.7,50.1,34L50.1,34z"/>
	
		<linearGradient id="SVGID_3_" gradientUnits="userSpaceOnUse" x1="1.3" y1="767.35" x2="50.2217" y2="767.35" gradientTransform="matrix(1 0 0 1 0 -710)">
		<stop  offset="0" style="stop-color:#A492C4"/>
		<stop  offset="0.2592" style="stop-color:#A296C7"/>
		<stop  offset="0.5132" style="stop-color:#9CA2D0"/>
		<stop  offset="0.7642" style="stop-color:#93B5DF"/>
		<stop  offset="1" style="stop-color:#86CFF2"/>
	</linearGradient>
	<path class="st5" d="M40.5,51.1H20.9H1.3l0,0c0,6.8,4.2,12.3,9.5,12.5h0.6h19.3h19.6C50.3,56.7,45.9,51.1,40.5,51.1z"/>
</g>
</svg>
