<?xml version="1.0" encoding="utf-8"?>
<!-- Generator: Adobe Illustrator 27.2.0, SVG Export Plug-In . SVG Version: 6.00 Build 0)  -->
<svg version="1.1" id="图层_1" xmlns="http://www.w3.org/2000/svg" xmlns:xlink="http://www.w3.org/1999/xlink" x="0px" y="0px"
	 viewBox="0 0 37.1 36" style="enable-background:new 0 0 37.1 36;" xml:space="preserve">
<style type="text/css">
	.st0{fill:#7871B2;}
	.st1{fill:url(#SVGID_1_);}
	.st2{fill:url(#SVGID_00000086663369414381288520000017489916389066201253_);}
	.st3{fill:url(#SVGID_00000026153390420543541200000006629207465865319065_);}
</style>
<g>
	<path class="st0" d="M1.8,6.4L1.8,6.4L1.8,6.4z"/>
	
		<linearGradient id="SVGID_1_" gradientUnits="userSpaceOnUse" x1="1.8391" y1="28.2788" x2="35.1383" y2="28.2788" gradientTransform="matrix(1 0 0 -1 0 38)">
		<stop  offset="0" style="stop-color:#A492C4"/>
		<stop  offset="0.2592" style="stop-color:#A296C7"/>
		<stop  offset="0.5132" style="stop-color:#9CA2D0"/>
		<stop  offset="0.7642" style="stop-color:#93B5DF"/>
		<stop  offset="1" style="stop-color:#86CFF2"/>
	</linearGradient>
	<path class="st1" d="M28.5,6.4H15.2H1.8l0,0c0,3.6,2.9,6.5,6.5,6.7c0.1,0,0.1,0,0.2,0c0.1,0,0.1,0,0.2,0h13.1h13.3
		C35.2,9.3,32.2,6.4,28.5,6.4z"/>
	<path class="st0" d="M1.8,15.6L1.8,15.6L1.8,15.6z"/>
	
		<linearGradient id="SVGID_00000037693381036383063520000006025990048437522074_" gradientUnits="userSpaceOnUse" x1="1.8391" y1="19.0506" x2="35.1566" y2="19.0506" gradientTransform="matrix(1 0 0 -1 0 38)">
		<stop  offset="0" style="stop-color:#A492C4"/>
		<stop  offset="0.2592" style="stop-color:#A296C7"/>
		<stop  offset="0.5132" style="stop-color:#9CA2D0"/>
		<stop  offset="0.7642" style="stop-color:#93B5DF"/>
		<stop  offset="1" style="stop-color:#86CFF2"/>
	</linearGradient>
	<path style="fill:url(#SVGID_00000037693381036383063520000006025990048437522074_);" d="M35.2,15.6H21.9H8.5c-3.7,0-6.7,3-6.7,6.7
		h6.5c0.1,0,0.1,0,0.2,0c0.1,0,0.1,0,0.2,0h6.5h13.2h0.4C32.3,22.2,35.2,19.3,35.2,15.6L35.2,15.6z"/>
	
		<linearGradient id="SVGID_00000047024891696236606210000013981908891263559305_" gradientUnits="userSpaceOnUse" x1="1.959" y1="9.8823" x2="35.2582" y2="9.8823" gradientTransform="matrix(1 0 0 -1 0 38)">
		<stop  offset="0" style="stop-color:#A492C4"/>
		<stop  offset="0.2592" style="stop-color:#A296C7"/>
		<stop  offset="0.5132" style="stop-color:#9CA2D0"/>
		<stop  offset="0.7642" style="stop-color:#93B5DF"/>
		<stop  offset="1" style="stop-color:#86CFF2"/>
	</linearGradient>
	<path style="fill:url(#SVGID_00000047024891696236606210000013981908891263559305_);" d="M28.6,24.8H15.3H2l0,0
		c0,3.6,2.9,6.5,6.5,6.7h0.4h13.1h13.3C35.3,27.8,32.3,24.8,28.6,24.8z"/>
</g>
</svg>
